<svg width="191" height="1090" viewBox="0 0 191 1090" fill="none" xmlns="http://www.w3.org/2000/svg">
<path d="M-170.059 350.432C-167.184 352.36 -168.816 351.026 -167.963 354.392C-166.942 358.439 -166.314 362.199 -165.754 366.356C-165.379 369.15 -163.989 369.702 -163.313 372.143C-162.794 374.02 -163.76 376.315 -163.484 378.234C-163.054 381.173 -162.016 384.829 -160.719 387.646C-157.95 393.69 -147.927 401.664 -140.792 401.98C-135.34 402.216 -132.633 399.903 -127.188 399.966C-122.665 400.022 -118.142 399.897 -113.618 399.954C-108.842 400.011 -106.699 398.441 -102.339 397.933C-97.9967 397.435 -93.0911 397.981 -88.6975 397.981C-83.57 397.981 -77.7938 397.298 -72.8438 398.423C-68.0781 399.506 -64.456 400.246 -59.2568 400.002C-51.207 399.629 -44.4442 396.504 -38.255 392.583C-26.9826 385.435 -19.0694 373.599 -5.41072 369.773C-1.5258 368.69 2.07919 366.735 6.36353 366.258C8.55861 366.016 10.3595 365.451 12.5 364.997C14.5551 364.561 15.5706 364.655 17.6223 364.219C21.7632 363.351 24.7737 363.142 29 362.351C30.5294 362.068 33.6467 362.551 35.8043 362.303C37.9413 362.059 40.4778 362.351 42.6489 362.351C52.7777 362.351 61.203 364.309 69.7581 368.785C77.4425 372.802 80.5013 377.971 90.2068 378.18C105.938 378.511 120.812 369.925 129.268 358.445C132.316 354.308 135.252 351.572 140.089 348.996C144.251 346.776 146.193 347.218 150.836 346.063C154.004 345.272 157.302 342.404 160.402 341.013C164.249 339.291 167.734 339.303 171.787 338.202C177.553 336.632 178.768 330.825 181.342 326.67C183.428 323.301 185.995 320.636 187.064 316.813C188.122 313.029 187.156 309.143 188.077 305.38C188.385 304.118 189.576 302.814 189.88 301.035C190.221 299.053 189.771 297.337 189.334 295.484C188.979 293.989 187.743 290.999 187.128 289.098C186.534 287.25 184.718 284.735 183.612 283.063C181.68 280.13 180.543 277.724 179.075 274.758C177.361 271.317 176.788 268.986 175.754 265.342C174.784 261.919 173.053 258.019 172.217 255.011C168.328 241.014 161.627 230.53 146.811 223.777C138.717 220.088 132.139 216.501 122.068 218.769C120.579 219.252 119.074 219.667 117.425 219.864C104.217 221.437 81.9385 211.72 75.4625 201.579C69.8058 192.725 71.8541 191.801 75.4625 182.982C75.6298 182.571 76.9667 180.288 75.854 175.636C74.5021 174.651 73.5986 172.706 72.134 171.813C63.8965 166.791 55.1913 162.049 50.0125 154.534C45.9398 148.622 44.3456 141.743 40.9967 136.127C37.9959 131.092 32.4758 125.556 26.2763 123.303C16.622 119.79 9.26186 120.829 -0.388992 122.864C-9.3127 124.75 -16.3929 128.051 -24.7397 131.217C-32.373 134.106 -40.2794 132.28 -47.9502 130.343C-52.6715 129.152 -57.6523 126.01 -62.0356 125.234C-66.2654 124.485 -70.7238 124.822 -75.1208 124.795C-77.1213 124.783 -80.1084 124.288 -82.0303 124.694C-84.0855 125.126 -84.2766 126.442 -86.3249 126.875C-90.2132 127.696 -95.9758 126.83 -100.021 126.78C-108.354 126.678 -116.797 131.34 -122.737 136.616C-124.638 138.305 -125.372 139.368 -127.195 140.678C-128.383 141.531 -129.8 141.994 -131.104 143.059C-134.545 145.864 -136.979 150.156 -140.738 152.657C-148.822 158.044 -161.576 152.875 -170.23 152.463C-178.546 152.063 -186.213 152.803 -194 154.274V338.787C-188.651 342.24 -182.943 345.973 -177.132 348.486C-175.282 349.289 -171.643 349.369 -170.059 350.432Z" fill="#231F20"/>
<path d="M2.8227 421.655C-7.18851 421.769 -15.6456 410.212 -25.6497 415.37C-31.2508 418.256 -36.7876 422.864 -40.2051 430.914C-41.5195 434.007 -42.4745 437.4 -43.7371 440.595C-45.2197 444.351 -45.4235 446.413 -46.0763 450.718C-46.7916 455.455 -46.9526 459.2 -46.9991 464.278C-47.0366 468.607 -45.9278 471.729 -45.7884 475.902C-45.6435 480.339 -47.3549 495.926 -42.2581 495.281L-41.947 494.264C-41.6394 500.395 -32.6726 511.91 -31.2866 514.174C-26.517 521.972 -28.5236 533.178 -25.9358 542.252C-25.0095 545.503 -24.5624 546.476 -22.352 548.108C-21.2056 548.955 -19.4226 550.585 -18.2674 551.035C-15.0787 552.279 -12.051 553.932 -9.10205 555.392C-5.84724 556.999 -2.07739 558.041 1.37056 556.841C2.16995 556.56 2.85131 555.535 3.97977 555.29C4.77916 555.348 5.57856 555.357 6.37974 555.337C7.96064 555.354 9.54333 555.354 11.126 555.337C13.5028 555.313 14.8619 555.903 17.0562 556.844C19.0484 557.694 20.9942 556.855 22.9864 557.705C26.4451 559.18 29.8984 558.488 33.3982 559.645C34.6948 560.071 36.9713 561.628 38.436 562.609C39.72 563.473 40.7126 564.233 41.934 565.086C44.4592 566.844 48.5295 568.681 51.457 568.944C53.417 569.116 55.4182 568.847 57.3836 568.894C59.2077 568.935 59.8551 567.948 61.2125 567.39C64.5639 566.003 67.9903 565.515 70.7587 561.628C74.2496 556.73 79.6343 549.355 79.983 541.826C80.1744 537.664 78.3145 534.11 77.2594 530.637C76.8677 529.358 76.4475 528.187 76.0755 526.756C75.7661 525.564 75.505 523.441 75.2153 522.346C73.4913 515.844 73.9956 508.552 73.9956 501.095C73.9956 487.395 76.4028 466.773 69.0169 457.021C61.7311 447.395 54.5044 439.862 49.9441 425.966C48.145 420.484 47.1328 414.003 43.4434 411.495C39.3337 408.702 34.4193 410.315 30.1005 412.35C25.5741 414.485 21.7131 421.343 17.0526 421.705C12.3385 422.073 7.54932 421.603 2.8227 421.655Z" fill="#231F20"/>
<path d="M88.5255 900.709C91.197 898.638 96.0639 899.228 98.9695 897.908C101.541 896.747 104.294 893.526 106.502 891.289C110.917 886.817 116.575 878.069 118.103 871.083C119.895 862.886 118.504 851.632 118.504 843C118.504 837.092 117.993 831.728 119.806 826.299C121.141 822.315 122.51 815.872 124.256 812.46C127.573 805.989 131.402 799.423 134.964 793.042C139.263 785.337 144.622 779.081 148.399 770.923C151.429 764.379 156.309 758.907 157.369 751.835C159.989 734.329 156.161 717.301 146.61 705.256C143.756 701.65 140.293 699.126 136.747 696.865C133.906 695.045 130.487 694.643 127.334 692.741C121.434 689.181 115.33 685.284 109.481 681.476C98.192 674.124 92.3593 657.844 89.5586 642.646C88.4905 636.847 88.1031 632.202 88.1596 625.949C88.2053 620.506 90.5003 618.833 94 614.737C99.5003 610.091 102 608.618 113 601.462C119.5 596.654 130.239 590.623 124 584.852C117.5 582.23 109.5 589.223 75.4997 589.223C66.8172 589.223 67.9997 577.859 41.4997 576.548C30.4997 576.548 21.4997 590.098 9.68732 580.568C4.41961 577.458 -0.46608 577.81 -5.08273 571.684C-10.294 564.781 -9.99802 556.644 -9.99532 547.239C-9.99532 543.014 -10.7648 537.409 -9.63213 533.461C-8.99989 531.257 -7.84035 529.661 -6.49249 528.291C-6.39025 522.603 -5.58462 522.884 -4 517.264C-4.0834 517.203 -3.5 514.493 -3.5 510.708C-5.73636 503.128 -9.86081 504.13 -13.5574 499.488C-16.8342 495.372 -20.4662 493.006 -23.9206 489.414C-26.5814 486.642 -27.7328 483.69 -31.4159 482.734C-39.4332 480.648 -46.264 484.179 -52.4249 490.669C-57.698 496.224 -61.5372 503.328 -63.9746 511.414C-65.2848 515.768 -66.5627 521.154 -67.195 525.781C-67.9537 531.322 -65.8928 535.043 -65.231 540.087C-64.5234 545.455 -65.8982 551.413 -65.3628 556.842C-64.9109 561.43 -63.4877 563.691 -63.5415 568.714C-63.6356 577.526 -64.6122 587.23 -62.0241 595.457C-61.0206 598.639 -59.9364 601.019 -59.7642 604.632C-59.6754 606.588 -60.0575 615.749 -62.2393 616.123C-62.9604 616.249 -63.4204 615.868 -63.6222 614.965C-63.4661 619.797 -63.5495 622.541 -64.8813 626.539C-66.1296 630.282 -66.3233 633.751 -67.4532 637.354C-68.0236 639.187 -69.7696 640.338 -70.3239 642.589C-70.8834 644.854 -70.6467 647.004 -71.0637 649.276C-71.3973 651.07 -72.2555 652.048 -72.5004 654.515C-72.721 656.758 -72.4708 659.455 -72.4573 661.727C-72.3981 671.571 -73.7164 679.542 -78.2523 687.495C-79.7939 690.206 -82.5058 691.619 -83.2564 694.992C-83.6815 696.915 -83.2429 699.676 -83.5631 701.74C-83.8025 703.3 -84.7738 704.76 -84.9917 706.989C-85.971 716.934 -84.5047 726.289 -82.7748 735.141C-82.4116 737 -81.5911 737.849 -81.3382 740.376C-81.1176 742.623 -81.3785 745.305 -81.3812 747.589C-81.3893 752.356 -81.3947 757.131 -81.3812 761.895C-81.3651 767.428 -80.9965 771.584 -83.1676 776.197C-84.6904 779.426 -86.501 782.385 -88.0694 785.822C-90.7759 791.751 -92.1803 804.022 -89.0003 810.242C-85.4652 817.159 -79.7509 824.343 -74.728 829.341C-69.7508 834.288 -63.8051 835.539 -58.1769 838.886C-51.6366 842.769 -45.2982 844.139 -38.992 848.353C-34.682 851.24 -28.505 854.019 -24.6658 857.834C-20.0142 862.454 -14.846 866.78 -10.4392 872.201C-5.2603 878.58 -4.67379 883.879 -4.63882 893.08C-4.6146 899.239 -6.22883 903.927 -6.46558 909.773C-6.54359 911.743 -0.326202 920.105 21.1738 921.854C42.6738 923.602 34.6738 931.033 47.6738 925.788C60.6738 920.542 74.6738 920.105 74.6738 920.105C80.1738 919.231 79.7765 912.139 81.3745 909.834C83.2201 907.181 86.1096 902.575 88.5255 900.709Z" fill="#231F20"/>
<path d="M-60.0709 76.8196C-53.1944 77.5238 -46.1076 75.1275 -39.5025 78.0325C-37.6782 78.8336 -36.6029 79.8873 -34.9752 80.934C-34.295 81.3718 -33.0526 81.6105 -32.2958 82.0189C-31.2873 82.5674 -31.3974 83.1868 -30.1118 83.5397C-24.3873 85.116 -18.883 82.3026 -14.4383 79.7575C-10.7641 77.6536 -7.38686 75.0254 -2.95 75.7105C-1.61324 75.9182 -0.616562 76.6154 1.25294 76.5947C2.55431 76.5774 3.85765 76.6172 5.15509 76.6016C7.77946 76.5705 9.36981 78.0411 11.717 77.8318C13.0833 77.7107 15.6663 76.0877 16.891 75.4475C18.8156 74.4423 19.484 73.5097 20.4846 71.7224C22.2145 68.6271 25.9319 64.1095 24.7858 60.4726C23.5965 56.6973 18.7429 54.2282 18.1708 50.2297C17.8641 48.0739 17.5771 44.2051 18.1334 42.1098C18.5502 40.5388 19.9341 38.8017 20.4885 37.3224C22.01 33.2806 23.5591 27.9827 20.52 24.0343C17.9211 20.657 13.3939 19.5687 11.3238 16.0858C9.34033 12.7482 9.8652 8.55068 8.08416 5.15947C6.56261 2.25791 4.47099 2.16967 1.18217 0.854707C-1.80785 -0.339138 -1.99068 -0.143624 -5.2736 0.595175C-7.80361 1.16788 -9.40182 1.09348 -11.7195 2.00357C-14.1709 2.96729 -15.2285 3.8151 -17.2985 5.18715C-22.2563 8.47455 -26.243 4.55909 -31.3522 5.3844C-32.7971 5.61798 -33.8134 6.43118 -35.2642 6.65091C-36.5085 6.83778 -38.0321 6.22009 -39.241 6.53672C-40.9159 6.97792 -42.176 8.66488 -43.4125 9.75145C-46.607 12.5613 -49.2687 15.6134 -50.9495 19.1846C-52.3904 22.2436 -53.4205 25.8441 -55.7736 28.7128C-57.2833 30.5572 -59.6109 30.533 -61.3762 31.8151C-62.9646 32.9691 -63.6939 34.4035 -63.9868 36.4053C-65.011 43.4196 -64.4193 48.2815 -70.5035 53.5708C-74.5236 57.0641 -78.0464 61.7391 -74.6101 66.5456C-72.0368 70.1427 -64.836 76.3334 -60.0709 76.8196Z" fill="#231F20"/>
<path d="M95.5681 470.101C100.13 470.679 104.831 468.711 109.213 471.097C110.423 471.755 111.136 472.621 112.216 473.481C112.667 473.84 112.999 474.162 113.501 474.497C114.17 474.948 117.256 475.365 118.501 475.497C120.681 475.727 123.553 474.088 126.501 471.997C128.938 470.269 130.058 470.369 133.001 470.932C133.888 471.103 135.008 469.933 136.248 469.916C137.112 469.902 137.976 469.935 138.837 469.922C140.578 469.896 141.501 469.916 143.001 469.997C144.501 469.997 145.81 469.5 146.622 468.974C147.899 468.148 148.342 467.382 149.006 465.914C150.153 463.371 151.001 460.321 151.001 456.997C151.001 453.673 150.881 450.782 150.501 447.497C150.298 445.726 149.632 443.218 150.001 441.497C150.277 440.207 149.633 438.712 150.001 437.497C151.01 434.177 151.045 429.985 149.029 426.742C147.305 423.967 144.302 423.073 142.929 420.212C141.613 417.471 141.961 414.023 140.78 411.237C139.771 408.854 138.383 408.781 136.201 407.701C134.218 406.72 134.097 406.881 131.919 407.488C130.24 407.958 129.18 407.897 127.643 408.645C126.017 409.436 124.001 409.293 121.001 409.997C118.871 410.497 118.008 410.744 114.619 411.422C113.661 411.614 112.963 411.241 112.001 411.422C111.176 411.575 110.188 412.108 109.386 412.368C108.275 412.731 107.439 414.117 106.619 415.009C104.5 417.317 102.734 419.824 101.619 422.758C100.663 425.271 99.562 427.141 98.001 429.497C96.9995 431.012 95.8733 432.08 94.7022 433.133C93.6486 434.081 93.1648 435.259 92.9704 436.903C92.291 442.665 92.6836 446.659 88.6475 451.004C85.9807 453.873 83.6438 457.713 85.9233 461.661C87.6303 464.616 92.4071 469.701 95.5681 470.101Z" fill="#231F20"/>
<path d="M70.1358 666.234C74.1131 668.359 80.0036 671.952 85.3621 669.573C90.9643 667.09 93.749 659.546 97.1419 654.523C100.232 649.943 103.936 646.762 107.924 643.285C113.861 638.11 123.705 635.259 130.186 635.239C133.903 635.235 136.65 638.288 140.078 639.102C143.286 639.862 149.31 637.066 152.41 634.593C158.955 629.38 169.275 618.774 170.309 610.454C171.306 602.411 170.157 594.239 171.5 586.289C172.189 582.263 173.557 576.931 175.616 572.979C176.825 570.652 179.323 568.797 180.398 566.426C181.414 564.19 180.416 563.237 181.425 560.995C182.463 558.667 184.932 556.616 186.193 554.359C187.744 551.586 187.34 551.02 188.22 548.646C190.313 542.972 191.012 539.65 190.795 534.183C190.494 526.486 185.736 520.298 179.468 517.381C175.859 515.7 173.073 516.358 169.582 513.853C165.728 511.087 161.765 508.461 157.862 505.765C150.933 500.976 144.582 495.993 136.593 493.592C132.738 492.434 131.224 490.496 126.491 492.897C123.463 494.43 118.084 497.487 115.5 499.848C108.945 505.849 103.211 516.052 101.303 524.06C100.678 526.67 98.3718 532.765 98.4412 535.094C98.6062 540.739 102.738 545.397 106.512 547.854C110.478 550.433 114.641 551.511 111.97 558.032C110.36 561.959 107.75 569.229 104.468 572.467C101.596 575.302 96.8157 577.939 93.4328 580.109C89.9503 582.336 86.1591 585.389 82.5279 587.119C78.7681 588.911 74.7714 589.147 71.4456 592.238C67.3753 596.023 64.0357 602.039 60.8295 606.786C54.3983 616.299 40.5917 616.216 35.8385 628.477C33.6324 634.174 36.5619 636.174 38.248 639.59C39.3774 641.896 40.4179 643.175 41.6667 645.276C42.6468 646.918 43.8696 649.488 45.0066 650.995C48.2253 655.226 54.8135 654.155 58.9168 657.166C62.8357 660.045 65.7853 663.91 70.1358 666.234Z" fill="#231F20"/>
<path d="M122.086 652.478C120.867 654.285 118.328 656.719 118.916 659.745L118.362 666.615C118.147 667.565 119.834 668.947 121.52 670.328C123.905 672.281 123.943 672.874 126.796 673.519C128.697 673.949 130.076 672.594 131.774 671.636C133.472 670.678 141.113 666.367 140.526 663.341C139.938 660.315 137.173 657.398 136.694 656.549C136.311 655.87 132.035 653.581 129.945 652.522C126.332 650.083 125.483 650.562 122.086 652.478Z" fill="black"/>
<path d="M11.6829 993.773C11.6665 994.746 12.6448 995.145 13.4517 995.964L14.43 996.362C14.6473 996.45 15.2435 996.791 15.8891 997.446C16.6961 998.265 16.5412 997.712 17.1934 997.977C17.8455 998.243 18.3428 997.955 18.6853 997.114C19.0278 996.273 20.5689 992.488 19.762 991.669C18.955 990.85 17.4795 990.74 17.1534 990.607C16.8925 990.501 15.0664 991.065 14.1859 991.36C12.5393 991.669 12.3681 992.09 11.6829 993.773Z" fill="black"/>
<path d="M40.048 1024.8C42.4446 1025.39 43.975 1023.19 46.4486 1021.65L47.9789 1019.46C48.319 1018.97 49.4939 1017.69 51.4728 1016.46C53.9464 1014.93 52.493 1015 53.5132 1013.54C54.5335 1012.07 54.1003 1010.68 52.2139 1009.37C50.3274 1008.05 41.8382 1002.13 39.3646 1003.67C36.891 1005.2 35.7937 1008.79 35.2836 1009.52C34.8755 1010.1 35.2484 1014.93 35.4858 1017.27C35.331 1021.51 36.2742 1022.17 40.048 1024.8Z" fill="black"/>
<path d="M19.6419 939.785C16.9481 939.012 14.3447 941.803 10.8284 943.743L8.22501 946.535C7.64649 947.155 5.78617 948.783 2.97307 950.335C-0.543316 952.275 1.2375 952.196 -0.498061 954.057C-2.23362 955.918 -2.18836 957.7 -0.362282 959.403C1.4638 961.106 9.68116 968.77 13.1975 966.83C16.7139 964.89 19.272 960.317 20.1398 959.387C20.834 958.642 22.0439 952.464 22.5621 949.467C24.2079 944.043 23.2949 943.192 19.6419 939.785Z" fill="black"/>
<path d="M-69.0442 1035.15C-57.9384 1033.51 -51.3353 1017.55 -40.2799 1003.42L-33.6768 987.458C-32.2094 983.911 -27.0636 973.991 -18.2193 962.693C-7.16381 948.57 -13.8172 952.05 -9.41514 941.407C-5.01309 930.764 -7.26443 923.601 -16.1692 919.918C-25.0739 916.234 -65.1453 899.66 -76.2007 913.783C-87.2562 927.906 -91.6079 951.034 -93.809 956.355C-95.5698 960.612 -92.9411 987.873 -91.4067 1000.97C-91.3099 1025.94 -86.8575 1027.78 -69.0442 1035.15Z" fill="black"/>
<path d="M0.392966 1068.27C5.51288 1065.13 8.86505 1063.81 10.44 1056.97L21.7272 1049.71C26.9679 1047.94 27.8529 1039.39 22.0441 1030.36C18.2497 1024.46 13.9781 1022.78 11.7999 1019.39C9.48151 1015.79 -0.00410315 1020.38 -5.51801 1021.41C-11.0319 1022.45 -35.8445 1027.09 -37.4194 1033.92C-38.9944 1040.76 -34.6615 1048.66 -34.2675 1050.77C-33.9523 1052.46 -24.9456 1059.93 -20.4817 1063.45C-13.3942 1070.84 -10.6372 1070.33 0.392966 1068.27Z" fill="black"/>
<path d="M178.129 483.439C178.031 481.246 176.009 480.663 174.275 479.08L172.253 478.496C171.804 478.367 170.558 477.791 169.171 476.525C167.438 474.942 167.823 476.136 166.475 475.747C165.127 475.358 164.165 476.162 163.588 478.161C163.011 480.16 160.416 489.153 162.15 490.736C163.883 492.319 166.868 492.098 167.542 492.292C168.081 492.448 171.681 490.6 173.414 489.657C176.686 488.437 176.975 487.438 178.129 483.439Z" fill="black"/>
<path d="M36.7697 100.339C36.7182 103.395 37.2581 104.987 39.7908 107.557L42.861 108.808C43.5432 109.085 45.4142 110.155 47.4404 112.211C49.9731 114.781 51.4108 112.21 53.9957 110.181C55.7341 108.817 55.3816 107.9 56.4564 105.26C57.5313 102.621 58.9913 97.9875 56.4586 95.4175C53.926 92.8475 52.4318 91.1629 51.4084 90.7462C50.5897 90.4128 46.9192 94.4911 44.1559 95.4175C38.988 96.3893 38.9199 95.0581 36.7697 100.339Z" fill="black"/>
<path d="M85.7685 197.543C86.3708 198.072 86.9333 198.637 87.7888 198.581L88.454 198.196C88.6019 198.11 88.8167 197.588 89.5011 197.543C90.3566 197.486 90.1965 197.626 90.64 197.369C91.0835 197.113 91.115 196.656 90.7345 195.998C90.354 195.341 90.3566 193.753 89.5011 193.809C88.6456 193.865 86.4624 193.086 85.7677 193.809C85.3358 194.259 85.4108 194.983 85.221 195.678C84.7143 196.849 85.0073 196.227 85.7685 197.543Z" fill="black"/>
<path d="M104.389 190.103C104.337 193.159 107.407 194.409 109.94 196.979L113.01 198.229C113.692 198.507 115.563 199.577 117.589 201.633C120.122 204.203 119.636 202.466 121.683 203.3C123.73 204.133 125.291 203.23 126.365 200.59C127.44 197.95 132.277 186.072 129.745 183.502C127.212 180.932 122.581 180.585 121.558 180.168C120.739 179.835 115.007 181.604 112.244 182.53C107.076 183.502 106.539 184.822 104.389 190.103Z" fill="black"/>
</svg>
